<svg version="1.1" xmlns="http://www.w3.org/2000/svg" xmlns:xlink="http://www.w3.org/1999/xlink" x="0px" y="0px"
	 viewBox="0 0 640 640" style="enable-background:new 0 0 640 640;" xml:space="preserve">
<style type="text/css">
	.st0{fill:#FFFFFF;stroke:#000000;stroke-miterlimit:10;}
</style><g>
	<path class="st0" d="M252.02,359.96"/>
	<path d="M576,288c0-39.5-32.5-72-72-72l-143.82,0.44c-39.5,0-72,32.5-72,72L288,504c-78.94-0.14-143.86-65.06-144-144l36,0
		c19.75,0,36-16.25,36-36c0-19.75-16.25-36-36-36l-36,0c-0.14-78.94,65.06-143.59,144-144h252c19.75,0,36-16.25,36-36
		c0-19.75-16.25-36-36-36l-324,0c-78.94,0.41-144.14,65.06-144,144v216c-0.14,78.94,65.06,143.59,144,144h144h144
		c39.5,0,72-32.5,72-72v-72c0-39.5-32.5-72-72-72C543.5,360,576,327.5,576,288z M504.04,467.96c0.02,19.77-16.26,36.09-36.09,36.09
		h-71.91c-19.82,0-36.11-16.32-36.09-36.09v-36h108.09C487.8,432,504.02,448.25,504.04,467.96z"/>
</g>
</svg>
